<svg xmlns="http://www.w3.org/2000/svg" viewBox="0 0 304 282.73"><defs><style>.cls-1,.cls-2{fill:none;stroke:#70cddd;stroke-linecap:round;stroke-linejoin:bevel;}.cls-1{stroke-width:12.73px;}.cls-2{stroke-width:12.73px;}.cls-3{fill:#fff;stroke:#3a53a4;stroke-miterlimit:10;stroke-width:4px;}</style></defs><g id="Layer_2" data-name="Layer 2"><g id="Layer_1-2" data-name="Layer 1"><polyline class="cls-1" points="44 6.36 44 276.36 152 276.36"/><polyline class="cls-2" points="260 276.36 260 6.36 152 6.36"/><path class="cls-3" d="M300.24,101.12a6,6,0,0,0-8.48,0L230,162.88V105.36a6,6,0,0,0-10.24-4.24L158,162.88V105.36a6,6,0,0,0-10.24-4.24L86,162.88V105.36a6,6,0,0,0-10.24-4.24l-72,72a6,6,0,0,0,8.48,8.49L74,119.85v57.51a6,6,0,0,0,10.24,4.25L146,119.85v57.51a6,6,0,0,0,3.7,5.55,6.19,6.19,0,0,0,2.3.45,6,6,0,0,0,4.24-1.75L218,119.85v57.51a6,6,0,0,0,10.24,4.25l72-72A6,6,0,0,0,300.24,101.12Z"/></g></g></svg>